<svg width="10" height="10" viewBox="0 0 10 10" fill="none" xmlns="http://www.w3.org/2000/svg">
<path d="M1.48672 8.89629L0.705002 0.13H9.295L8.51251 8.89497L4.99479 9.87L1.48672 8.89629Z" fill="#1572B6"/>
<path d="M5.00008 9.12475L7.8426 8.33683L8.51134 0.846719H5.00008V9.12475Z" fill="#33A9DC"/>
<path d="M5.00008 4.02275H6.42309L6.52137 2.92179H5.00008V1.84663H7.69666L7.40649 5.09791H5.00008V4.02275Z" fill="white"/>
<path d="M5.00646 6.815L5.00171 6.8164L3.8041 6.4931L3.72752 5.6356H2.64817L2.79878 7.32378L5.00156 7.93501L5.00646 7.93361V6.815Z" fill="#EBEBEB"/>
<path d="M6.33165 5.05243L6.20212 6.49224L5.00272 6.81593V7.93454L7.20729 7.3237L7.41054 5.05243H6.33165Z" fill="white"/>
<path d="M5.00373 1.84663V2.92179H2.40621L2.30995 1.84663H5.00373ZM5.00008 4.02275V5.09791L3.81756 5.09806L3.74696 4.31138L3.7213 4.02291L5.00008 4.02275Z" fill="#EBEBEB"/>
</svg>
