<svg width="10" height="11" viewBox="0 0 10 11" fill="none" xmlns="http://www.w3.org/2000/svg">
<path d="M1.48676 8.8994L0.705002 0.13H9.295L8.51239 8.89807L4.99477 9.87336L1.48676 8.8994Z" fill="#E44D26"/>
<path d="M5 9.12791L7.84244 8.33971L8.51121 0.84701H5V9.12791Z" fill="#F16529"/>
<path d="M5 4.09946H3.57698L3.47869 2.99804H5V1.92256H2.30344L2.59348 5.17502H5V4.09946ZM5 6.89271L4.99524 6.89404L3.79764 6.57051L3.72114 5.71283H2.64153L2.79218 7.40154L4.99508 8.01313L5 8.0118V6.89271Z" fill="#EBEBEB"/>
<path d="M4.99625 4.09946V5.17502H6.32043L6.19564 6.56988L4.99625 6.89365V8.01266L7.20087 7.40154L7.46973 4.3883L7.49591 4.09946H4.99625ZM4.99625 1.92256V2.99804H7.59381L7.69016 1.92256H4.99625Z" fill="white"/>
</svg>
