<svg width="10" height="10" viewBox="0 0 10 10" fill="none" xmlns="http://www.w3.org/2000/svg">
<path d="M0 0H10V10H0V0Z" fill="#F7DF1E"/>
<path d="M2.62937 8.35672L3.39461 7.89359C3.54227 8.15535 3.67656 8.37684 3.99871 8.37684C4.3075 8.37684 4.50223 8.25605 4.50223 7.78621V4.59098H5.44195V7.79949C5.44195 8.77281 4.87141 9.21586 4.03898 9.21586C3.28723 9.21586 2.8509 8.8266 2.62937 8.35672ZM5.95238 8.25602L6.71754 7.81301C6.91898 8.14195 7.18078 8.38359 7.64391 8.38359C8.03332 8.38359 8.2816 8.18891 8.2816 7.92039C8.2816 7.5982 8.02652 7.48406 7.59691 7.29617L7.36203 7.19539C6.68402 6.90684 6.2343 6.54434 6.2343 5.7791C6.2343 5.07426 6.77129 4.53723 7.61039 4.53723C8.20781 4.53723 8.63742 4.74535 8.94617 5.28906L8.21445 5.75898C8.05332 5.47035 7.87887 5.35625 7.61035 5.35625C7.33512 5.35625 7.16059 5.53078 7.16059 5.75898C7.16059 6.0409 7.33512 6.15508 7.73785 6.32961L7.97277 6.43027C8.7716 6.77266 9.22133 7.12168 9.22133 7.90699C9.22133 8.75285 8.5568 9.21598 7.66402 9.21598C6.79141 9.21598 6.22758 8.79977 5.95238 8.25602Z" fill="black"/>
</svg>
