<svg width="10" height="10" viewBox="0 0 10 10" fill="none" xmlns="http://www.w3.org/2000/svg">
<path d="M10 4.87042C10 4.20792 9.17042 3.58 7.89833 3.19083C8.19208 1.89458 8.06167 0.862917 7.48667 0.5325C7.34734 0.454467 7.18965 0.415188 7.03 0.41875V0.872917C7.12375 0.872917 7.19917 0.891667 7.2625 0.92625C7.53958 1.08542 7.66 1.69042 7.56625 2.46917C7.54375 2.66083 7.50708 2.8625 7.46208 3.06833C7.0361 2.96568 6.60375 2.89149 6.16792 2.84625C5.90827 2.48804 5.625 2.14756 5.32 1.82708C5.98458 1.20958 6.60583 0.872917 7.03 0.872917V0.41875C6.46917 0.41875 5.73792 0.81625 4.99583 1.50917C4.25417 0.820833 3.52 0.425 2.95958 0.425V0.879166C3.38167 0.879166 4.0075 1.21583 4.67208 1.82917C4.38667 2.12917 4.10125 2.46917 3.83 2.84625C3.39326 2.89099 2.96015 2.96589 2.53375 3.07042C2.48869 2.87533 2.45323 2.67815 2.4275 2.47958C2.33167 1.70042 2.45 1.09542 2.72542 0.934583C2.78625 0.897917 2.86583 0.879166 2.95958 0.879166V0.425C2.78875 0.425 2.63333 0.46375 2.49917 0.540833C1.92625 0.87125 1.79792 1.90042 2.09333 3.19292C0.825417 3.58458 0 4.21 0 4.87042C0 5.53292 0.829583 6.16083 2.10167 6.54958C1.80792 7.84625 1.93833 8.87792 2.51333 9.20792C2.64583 9.28542 2.80083 9.32208 2.97167 9.32208C3.5325 9.32208 4.26625 8.9225 5.00833 8.22958C5.75 8.91833 6.48375 9.31375 7.04458 9.31375C7.20546 9.31715 7.36435 9.27775 7.505 9.19958C8.07792 8.86958 8.20625 7.84042 7.91083 6.54792C9.17458 6.15875 10 5.53083 10 4.87042ZM7.34583 3.51083C7.26666 3.78327 7.1749 4.0519 7.07083 4.31583C6.90048 3.98448 6.71344 3.66198 6.51042 3.34958C6.8 3.3925 7.07875 3.44542 7.34583 3.51083ZM6.4125 5.68167C6.25989 5.94811 6.09599 6.20793 5.92125 6.46042C5.30969 6.51432 4.6946 6.51502 4.08292 6.4625C3.73206 5.96133 3.42522 5.43074 3.16583 4.87667C3.42483 4.32129 3.73036 3.78884 4.07917 3.285C4.69058 3.23099 5.30553 3.23015 5.91708 3.2825C6.08625 3.525 6.25167 3.78417 6.41042 4.0575C6.56542 4.32417 6.70625 4.595 6.83458 4.86833C6.70483 5.14498 6.56402 5.41631 6.4125 5.68167ZM7.07083 5.41667C7.18083 5.68958 7.275 5.96292 7.35208 6.22792C7.08542 6.29333 6.80375 6.34833 6.5125 6.39083C6.71468 6.07559 6.90103 5.75047 7.07083 5.41667ZM5.00417 7.59167C4.81458 7.39583 4.625 7.17792 4.4375 6.93917C4.62083 6.9475 4.80833 6.95375 4.99792 6.95375C5.18958 6.95375 5.37917 6.94958 5.56458 6.93917C5.38125 7.17792 5.19167 7.39583 5.00417 7.59167ZM3.4875 6.39083C3.20656 6.35013 2.92765 6.29646 2.65167 6.23C2.72708 5.96708 2.82083 5.69583 2.92667 5.425C3.01042 5.5875 3.09833 5.75083 3.19417 5.91417C3.29 6.07708 3.3875 6.23625 3.4875 6.39083ZM4.99375 2.14917C5.18333 2.345 5.37292 2.56292 5.56042 2.80167C5.37708 2.79333 5.18958 2.78708 5 2.78708C4.80833 2.78708 4.61875 2.79125 4.43333 2.80167C4.61667 2.56292 4.80625 2.345 4.99375 2.14917ZM3.48542 3.35C3.28328 3.66456 3.09694 3.98899 2.92708 4.32208C2.82009 4.05644 2.72623 3.7857 2.64583 3.51083C2.9125 3.4475 3.19417 3.3925 3.48542 3.35ZM1.64083 5.90167C0.919167 5.59417 0.4525 5.19042 0.4525 4.87042C0.4525 4.55042 0.919167 4.14458 1.64083 3.83917C1.81583 3.76375 2.0075 3.69625 2.20542 3.63333C2.32167 4.0325 2.47458 4.44833 2.66375 4.87458C2.48515 5.27549 2.33411 5.68812 2.21167 6.10958C2.0181 6.04965 1.8276 5.98026 1.64083 5.90167ZM2.7375 8.81417C2.46042 8.65583 2.34 8.05 2.43375 7.27167C2.45625 7.08 2.49292 6.87792 2.53792 6.67208C2.93708 6.77 3.37333 6.84542 3.83208 6.89458C4.09174 7.25279 4.37501 7.59326 4.68 7.91375C4.01542 8.53125 3.39167 8.86958 2.9675 8.86958C2.88748 8.87046 2.80847 8.85115 2.7375 8.81417ZM7.5725 7.26125C7.66833 8.04 7.55 8.64542 7.27458 8.80625C7.21375 8.84292 7.13417 8.85917 7.04042 8.85917C6.61833 8.85917 5.9925 8.52292 5.32792 7.90917C5.63164 7.59003 5.913 7.25033 6.17 6.8925C6.60674 6.84776 7.03985 6.77286 7.46625 6.66833C7.51333 6.87417 7.54958 7.07167 7.5725 7.26125ZM8.35708 5.90167C8.18208 5.97708 7.99042 6.04458 7.7925 6.1075C7.66791 5.68388 7.51478 5.26918 7.33417 4.86625C7.52167 4.4425 7.67208 4.02875 7.78625 3.63125C7.98043 3.69138 8.17162 3.76077 8.35917 3.83917C9.08083 4.14667 9.5475 4.55042 9.5475 4.87042C9.54542 5.19042 9.07875 5.59625 8.35708 5.90167Z" fill="#61DAFB"/>
<path d="M4.99792 5.80208C5.24501 5.80208 5.48198 5.70393 5.6567 5.5292C5.83143 5.35448 5.92958 5.11751 5.92958 4.87042C5.92958 4.62332 5.83143 4.38635 5.6567 4.21163C5.48198 4.03691 5.24501 3.93875 4.99792 3.93875C4.75082 3.93875 4.51385 4.03691 4.33913 4.21163C4.16441 4.38635 4.06625 4.62332 4.06625 4.87042C4.06625 5.11751 4.16441 5.35448 4.33913 5.5292C4.51385 5.70393 4.75082 5.80208 4.99792 5.80208Z" fill="#61DAFB"/>
<path fill-rule="evenodd" clip-rule="evenodd" d="M0 4.87042C0 4.21 0.825417 3.58458 2.09333 3.19292C1.79792 1.90042 1.92625 0.87125 2.49917 0.540833C2.63333 0.46375 2.78875 0.425 2.95958 0.425C3.52 0.425 4.25417 0.820833 4.99583 1.50917C5.73792 0.81625 6.46917 0.41875 7.03 0.41875C7.18965 0.415188 7.34734 0.454467 7.48667 0.5325C8.06167 0.862917 8.19208 1.89458 7.89833 3.19083C9.17042 3.58 10 4.20792 10 4.87042C10 5.53083 9.17458 6.15875 7.91083 6.54792C8.20625 7.84042 8.07792 8.86958 7.505 9.19958C7.36435 9.27775 7.20546 9.31715 7.04458 9.31375C6.48375 9.31375 5.75 8.91833 5.00833 8.22958C4.26625 8.9225 3.5325 9.32208 2.97167 9.32208C2.80083 9.32208 2.64583 9.28542 2.51333 9.20792C1.93833 8.87792 1.80792 7.84625 2.10167 6.54958C0.829583 6.16083 0 5.53292 0 4.87042ZM7.2625 0.92625C7.19917 0.891667 7.12375 0.872917 7.03 0.872917C6.60583 0.872917 5.98458 1.20958 5.32 1.82708C5.625 2.14756 5.90827 2.48804 6.16792 2.84625C6.60375 2.89149 7.0361 2.96568 7.46208 3.06833C7.50708 2.8625 7.54375 2.66083 7.56625 2.46917C7.66 1.69042 7.53958 1.08542 7.2625 0.92625ZM2.95958 0.879166C3.38167 0.879166 4.0075 1.21583 4.67208 1.82917C4.38667 2.12917 4.10125 2.46917 3.83 2.84625C3.39326 2.89099 2.96015 2.96589 2.53375 3.07042C2.48869 2.87533 2.45323 2.67815 2.4275 2.47958C2.33167 1.70042 2.45 1.09542 2.72542 0.934583C2.78625 0.897917 2.86583 0.879166 2.95958 0.879166ZM1.64083 5.90167C0.919167 5.59417 0.4525 5.19042 0.4525 4.87042C0.4525 4.55042 0.919167 4.14458 1.64083 3.83917C1.81583 3.76375 2.0075 3.69625 2.20542 3.63333C2.32167 4.0325 2.47458 4.44833 2.66375 4.87458C2.48515 5.27549 2.33411 5.68812 2.21167 6.10958C2.0181 6.04965 1.8276 5.98026 1.64083 5.90167ZM2.92708 4.32208C3.09694 3.98899 3.28328 3.66456 3.48542 3.35C3.19417 3.3925 2.9125 3.4475 2.64583 3.51083C2.72623 3.7857 2.82009 4.05644 2.92708 4.32208ZM6.4125 5.68167C6.25989 5.94811 6.09599 6.20793 5.92125 6.46042C5.30969 6.51432 4.6946 6.51502 4.08292 6.4625C3.73206 5.96133 3.42522 5.43074 3.16583 4.87667C3.42483 4.32129 3.73036 3.78884 4.07917 3.285C4.69058 3.23099 5.30553 3.23015 5.91708 3.2825C6.08625 3.525 6.25167 3.78417 6.41042 4.0575C6.56542 4.32417 6.70625 4.595 6.83458 4.86833C6.70483 5.14498 6.56402 5.41631 6.4125 5.68167ZM5.6567 5.5292C5.48198 5.70393 5.24501 5.80208 4.99792 5.80208C4.75082 5.80208 4.51385 5.70393 4.33913 5.5292C4.16441 5.35448 4.06625 5.11751 4.06625 4.87042C4.06625 4.62332 4.16441 4.38635 4.33913 4.21163C4.51385 4.03691 4.75082 3.93875 4.99792 3.93875C5.24501 3.93875 5.48198 4.03691 5.6567 4.21163C5.83143 4.38635 5.92958 4.62332 5.92958 4.87042C5.92958 5.11751 5.83143 5.35448 5.6567 5.5292ZM7.07083 4.31583C7.1749 4.0519 7.26666 3.78327 7.34583 3.51083C7.07875 3.44542 6.8 3.3925 6.51042 3.34958C6.71344 3.66198 6.90048 3.98448 7.07083 4.31583ZM8.35708 5.90167C8.18208 5.97708 7.99042 6.04458 7.7925 6.1075C7.66791 5.68388 7.51478 5.26918 7.33417 4.86625C7.52167 4.4425 7.67208 4.02875 7.78625 3.63125C7.98043 3.69138 8.17162 3.76077 8.35917 3.83917C9.08083 4.14667 9.5475 4.55042 9.5475 4.87042C9.54542 5.19042 9.07875 5.59625 8.35708 5.90167ZM7.35208 6.22792C7.275 5.96292 7.18083 5.68958 7.07083 5.41667C6.90103 5.75047 6.71468 6.07559 6.5125 6.39083C6.80375 6.34833 7.08542 6.29333 7.35208 6.22792ZM7.5725 7.26125C7.66833 8.04 7.55 8.64542 7.27458 8.80625C7.21375 8.84292 7.13417 8.85917 7.04042 8.85917C6.61833 8.85917 5.9925 8.52292 5.32792 7.90917C5.63164 7.59003 5.913 7.25033 6.17 6.8925C6.60674 6.84776 7.03985 6.77286 7.46625 6.66833C7.51333 6.87417 7.54958 7.07167 7.5725 7.26125ZM2.65167 6.23C2.92765 6.29646 3.20656 6.35013 3.4875 6.39083C3.3875 6.23625 3.29 6.07708 3.19417 5.91417C3.09833 5.75083 3.01042 5.5875 2.92667 5.425C2.82083 5.69583 2.72708 5.96708 2.65167 6.23ZM2.7375 8.81417C2.46042 8.65583 2.34 8.05 2.43375 7.27167C2.45625 7.08 2.49292 6.87792 2.53792 6.67208C2.93708 6.77 3.37333 6.84542 3.83208 6.89458C4.09174 7.25279 4.37501 7.59326 4.68 7.91375C4.01542 8.53125 3.39167 8.86958 2.9675 8.86958C2.88748 8.87046 2.80847 8.85115 2.7375 8.81417ZM4.4375 6.93917C4.625 7.17792 4.81458 7.39583 5.00417 7.59167C5.19167 7.39583 5.38125 7.17792 5.56458 6.93917C5.37917 6.94958 5.18958 6.95375 4.99792 6.95375C4.80833 6.95375 4.62083 6.9475 4.4375 6.93917ZM5.56042 2.80167C5.37292 2.56292 5.18333 2.345 4.99375 2.14917C4.80625 2.345 4.61667 2.56292 4.43333 2.80167C4.61875 2.79125 4.80833 2.78708 5 2.78708C5.18958 2.78708 5.37708 2.79333 5.56042 2.80167Z" fill="#61DAFB"/>
</svg>
